<!DOCTYPE svg PUBLIC "-//W3C//DTD SVG 20010904//EN" "http://www.w3.org/TR/2001/REC-SVG-20010904/DTD/svg10.dtd">
<svg version="1.0" xmlns="http://www.w3.org/2000/svg" width="1200px" height="1200px" viewBox="0 0 12000 12000" preserveAspectRatio="xMidYMid meet">
<g id="layer101" fill="#ffffff" stroke="none">
 <path d="M5685 11964 c-77 -8 -150 -12 -161 -9 -62 14 -775 -137 -965 -204 -100 -35 -390 -158 -539 -228 -283 -134 -717 -418 -945 -619 -49 -44 -144 -120 -210 -169 -142 -105 -283 -245 -345 -344 -25 -39 -82 -127 -127 -196 -118 -177 -274 -439 -396 -663 -101 -186 -108 -204 -206 -500 -55 -169 -116 -370 -135 -447 -44 -177 -96 -456 -96 -515 0 -48 -13 -70 -40 -70 -8 0 -66 25 -128 55 -61 30 -123 55 -136 55 -38 0 -89 -42 -116 -95 -22 -45 -24 -60 -23 -175 2 -141 28 -285 110 -595 45 -175 47 -184 47 -330 1 -205 -21 -285 -124 -456 -48 -80 -59 -109 -42 -109 20 0 226 90 277 120 74 45 170 138 224 218 23 35 49 66 58 69 49 19 200 -257 237 -435 28 -132 36 -132 110 -8 79 132 111 205 147 336 47 172 52 204 47 343 l-5 128 47 24 c76 38 80 57 80 358 0 253 11 446 31 545 6 30 14 86 19 125 14 126 110 466 192 682 63 168 149 338 277 550 189 313 292 442 592 746 162 163 272 252 487 394 398 261 581 351 952 468 184 59 266 77 525 121 190 32 236 36 480 42 215 5 298 3 405 -9 74 -9 167 -19 205 -22 93 -8 403 -77 540 -121 297 -93 615 -242 885 -415 268 -171 470 -337 708 -583 137 -142 210 -233 344 -431 244 -357 345 -562 467 -945 75 -236 87 -286 130 -540 38 -229 39 -243 46 -564 4 -204 11 -338 18 -353 6 -14 33 -36 60 -49 l49 -25 -7 -102 c-12 -178 40 -420 125 -585 52 -101 133 -222 150 -222 10 0 12 8 30 105 25 137 65 228 158 368 66 99 72 100 124 25 80 -119 191 -219 308 -278 49 -25 176 -70 196 -70 18 0 11 17 -53 132 -71 127 -113 283 -113 422 0 82 8 127 66 357 71 286 104 478 104 605 0 103 -33 176 -95 212 -52 29 -70 25 -209 -43 -108 -54 -136 -63 -136 -47 0 14 -49 305 -75 447 -29 157 -60 271 -142 520 -83 251 -187 482 -331 735 -103 181 -254 418 -311 490 -318 397 -564 646 -856 864 -630 472 -1259 742 -2015 865 -199 32 -289 42 -480 50 -279 13 -313 13 -495 -5z m354 -208 c39 -21 87 -77 101 -122 17 -50 6 -126 -25 -179 -50 -86 -171 -111 -250 -51 -54 42 -69 78 -69 176 -1 73 2 90 21 116 45 63 157 93 222 60z m-320 -123 c27 -263 27 -251 -4 -263 -37 -14 -62 -5 -70 27 -6 25 -18 204 -19 293 -1 37 3 46 23 56 46 24 57 6 70 -113z m785 97 c72 -23 101 -38 120 -61 77 -91 45 -254 -60 -304 -48 -23 -179 -17 -219 9 -26 17 -27 21 -22 80 6 58 21 174 33 243 5 32 27 63 45 63 5 0 51 -14 103 -30z m-973 -9 l23 -18 -17 -78 -17 -78 25 -29 c35 -41 41 -74 22 -114 -20 -41 -52 -58 -145 -74 -91 -17 -103 -8 -113 82 -4 35 -13 101 -20 148 -16 108 -9 140 30 140 36 0 48 -15 57 -69 12 -77 58 -64 69 21 7 46 32 88 54 88 5 0 19 -8 32 -19z m1459 -76 c149 -103 72 -366 -107 -365 -53 1 -116 31 -144 71 -35 50 -40 161 -9 224 49 101 169 133 260 70z m-1792 0 c4 -32 -12 -47 -64 -60 -56 -14 -75 -35 -54 -60 11 -13 24 -16 56 -11 56 7 93 -18 75 -51 -11 -21 -18 -25 -73 -37 -31 -7 -38 -35 -14 -55 10 -9 25 -9 58 0 52 14 73 9 81 -21 5 -21 0 -28 -38 -54 -19 -14 -19 -15 -2 -33 31 -35 17 -63 -32 -63 -9 0 -32 15 -50 34 -22 23 -39 32 -54 29 -41 -8 -54 17 -87 162 -43 184 -42 178 -31 194 13 19 129 50 181 48 37 -2 45 -6 48 -22z m-394 -97 c8 -13 24 -59 35 -103 36 -134 35 -134 95 -137 49 -3 51 -4 51 -33 0 -29 -3 -31 -110 -67 -136 -45 -153 -46 -161 -13 -7 27 18 65 41 65 34 0 33 26 -6 149 -37 117 -39 125 -23 142 23 26 60 24 78 -3z m2624 -28 c69 -33 85 -46 97 -75 27 -63 15 -100 -42 -134 -24 -15 -27 -22 -25 -66 2 -53 -8 -74 -47 -94 -30 -16 -77 -8 -158 29 -53 24 -63 33 -63 54 0 28 84 269 106 304 20 30 37 28 132 -18z m-2860 -66 c28 -19 52 -65 52 -98 0 -15 -20 -50 -50 -87 -27 -34 -50 -66 -50 -71 0 -14 47 -9 84 9 29 14 38 14 51 3 9 -8 15 -24 13 -39 -2 -20 -15 -32 -57 -53 -76 -39 -105 -37 -152 11 -55 54 -53 89 6 161 72 87 52 127 -38 76 -47 -26 -50 -26 -68 -10 -31 28 -23 52 28 84 38 24 58 30 103 30 34 0 64 -6 78 -16z m3205 -67 c80 -37 98 -57 76 -83 -26 -32 -44 -34 -97 -9 -42 20 -53 21 -62 10 -17 -21 -3 -52 30 -63 53 -19 75 -85 32 -95 -10 -2 -36 4 -59 12 -31 11 -46 12 -54 4 -18 -18 -1 -48 36 -66 47 -23 60 -49 34 -72 -19 -18 -22 -18 -72 -1 -28 9 -72 27 -97 39 -39 19 -45 27 -44 52 1 36 118 295 140 312 18 13 22 12 137 -40z m-3510 -39 c12 -13 51 -85 86 -161 l63 -137 -24 -20 c-25 -21 -45 -24 -65 -12 -13 8 -143 291 -143 310 0 16 29 42 46 42 8 0 25 -10 37 -22z m-86 -208 c91 -166 90 -165 59 -185 -40 -26 -63 -11 -96 63 -39 84 -55 74 -52 -31 2 -40 -1 -84 -7 -98 -10 -27 -58 -53 -86 -47 -23 4 -178 290 -169 312 8 21 38 38 56 31 7 -3 35 -43 61 -90 27 -47 53 -85 59 -85 8 0 9 35 5 116 -7 124 -1 149 36 164 37 14 58 -10 134 -150z m3867 109 c69 -40 86 -55 86 -74 0 -37 -52 -47 -95 -19 -47 31 -66 17 -125 -95 -30 -57 -63 -109 -72 -115 -24 -15 -72 4 -76 29 -6 40 160 325 189 325 4 0 46 -23 93 -51z m253 -146 c77 -48 103 -68 103 -83 0 -4 -9 -18 -19 -31 l-20 -24 -54 29 c-60 32 -87 30 -87 -8 0 -18 10 -30 40 -47 33 -19 40 -28 38 -47 -2 -14 -12 -31 -23 -38 -18 -12 -25 -11 -57 11 -47 32 -78 33 -78 2 0 -16 13 -30 46 -50 38 -23 45 -32 42 -54 -5 -43 -30 -51 -78 -24 -40 22 -42 23 -31 3 15 -29 14 -69 -3 -75 -8 -3 -26 3 -40 14 -27 22 -33 56 -16 89 8 15 4 23 -20 40 -17 12 -30 29 -30 37 0 30 181 303 201 303 6 0 45 -21 86 -47z m-4535 -35 c61 -84 168 -267 163 -280 -9 -24 -50 -42 -70 -31 -21 12 -185 272 -185 295 0 17 36 48 56 48 6 0 22 -15 36 -32z m-176 -66 c18 -12 194 -280 194 -296 0 -8 -12 -24 -27 -35 -50 -40 -65 -38 -153 29 -44 34 -83 60 -86 57 -3 -3 11 -42 30 -87 44 -99 45 -122 7 -149 -53 -38 -68 -31 -171 91 -122 144 -122 145 -115 168 8 24 38 42 58 35 7 -3 38 -37 67 -75 29 -39 56 -70 61 -70 12 0 13 -1 -22 81 -40 95 -44 116 -29 134 23 28 59 16 137 -45 111 -88 120 -83 38 23 -58 74 -65 99 -38 129 17 19 31 22 49 10z m4932 -60 c12 -23 6 -37 -44 -99 -68 -83 -56 -100 22 -32 58 50 86 62 119 49 33 -13 32 -38 -6 -129 -46 -110 -28 -106 67 13 26 33 34 38 58 32 15 -3 32 -18 38 -31 10 -21 7 -30 -26 -69 -70 -86 -201 -216 -217 -216 -9 0 -28 9 -43 21 -33 26 -34 60 -1 141 42 104 34 110 -56 43 -34 -25 -72 -45 -86 -45 -32 0 -83 36 -83 58 0 19 171 270 197 289 18 14 47 3 61 -25z"/>
 <path d="M5937 11679 c-49 -29 -65 -148 -24 -193 32 -35 59 -40 90 -16 53 42 56 143 6 196 -24 26 -44 29 -72 13z"/>
 <path d="M6440 11635 c-6 -15 -9 -39 -8 -53 0 -15 -2 -51 -6 -79 -7 -50 -6 -54 15 -62 13 -4 37 -4 54 0 46 13 65 43 65 105 0 63 -26 100 -77 110 -29 6 -34 3 -43 -21z"/>
 <path d="M5406 11484 c-19 -18 -19 -17 -4 -49 14 -32 38 -32 69 1 l24 26 -24 19 c-28 23 -45 24 -65 3z"/>
 <path d="M6851 11577 c-19 -23 -41 -98 -41 -138 0 -60 56 -97 103 -66 32 21 70 127 58 160 -19 49 -93 76 -120 44z"/>
 <path d="M7364 11424 c-16 -24 -16 -26 4 -47 21 -20 22 -20 42 -2 25 22 25 37 2 58 -24 22 -29 22 -48 -9z"/>
 <path d="M7309 11284 c-9 -11 -10 -20 -2 -32 14 -23 34 -25 58 -6 20 15 20 15 -4 35 -28 23 -35 24 -52 3z"/>
 <path d="M5745 10830 c-33 -4 -127 -15 -210 -24 -82 -10 -220 -33 -305 -53 -190 -44 -563 -169 -685 -230 -140 -71 -379 -209 -500 -289 -216 -144 -511 -415 -684 -629 -297 -366 -438 -620 -602 -1080 -48 -133 -134 -475 -143 -565 -4 -36 -13 -105 -21 -155 -7 -49 -17 -191 -21 -315 -9 -292 -5 -4233 4 -4242 4 -4 202 -9 439 -10 274 -2 436 -7 442 -13 7 -7 5 -28 -6 -64 -11 -40 -14 -83 -11 -170 4 -106 7 -121 36 -178 55 -108 -46 -98 1010 -100 509 -1 935 -4 947 -7 54 -14 25 -86 -34 -86 -16 0 -41 -4 -55 -10 -24 -9 -26 -14 -26 -74 0 -75 8 -66 -160 -176 -192 -125 -282 -228 -336 -385 -35 -102 -39 -252 -10 -355 57 -197 162 -350 362 -528 105 -93 300 -306 328 -359 43 -80 28 -176 -34 -208 -58 -30 -127 -17 -180 35 -39 38 -50 29 -50 -41 0 -102 46 -176 139 -222 57 -28 75 -32 146 -32 93 0 148 21 215 81 104 94 141 286 80 409 -17 34 -54 75 -120 133 -180 159 -364 337 -406 395 -23 31 -78 127 -121 213 l-78 155 0 137 c0 214 38 297 230 506 114 123 165 160 189 136 7 -7 -23 -42 -95 -113 -255 -246 -325 -447 -243 -695 68 -206 163 -330 447 -585 266 -239 346 -345 365 -483 22 -172 -40 -309 -198 -434 -80 -64 -120 -101 -120 -112 0 -4 26 -8 57 -8 41 0 62 5 77 19 12 10 68 30 126 45 120 30 327 126 456 211 149 100 221 189 352 435 54 103 69 140 54 140 -5 0 -29 -26 -52 -57 -43 -58 -88 -103 -104 -103 -11 0 -3 56 25 170 31 127 34 391 5 485 -43 143 -104 211 -282 312 -153 88 -218 136 -315 235 -133 134 -181 264 -161 434 7 63 15 89 28 99 10 7 22 11 26 9 4 -3 6 -57 5 -122 -1 -91 3 -129 17 -172 59 -173 160 -275 440 -441 165 -97 218 -151 269 -273 20 -47 41 -111 47 -143 12 -58 8 -253 -6 -358 l-6 -50 22 20 c24 22 163 216 255 358 66 102 115 218 140 331 23 104 16 316 -14 426 -63 231 -169 383 -303 431 -65 24 -84 50 -73 99 3 15 1 39 -4 53 -9 23 -16 27 -51 27 -33 0 -42 4 -51 24 -8 17 -8 29 0 44 l11 21 853 3 c839 3 853 3 887 24 19 11 45 35 57 54 22 31 23 42 23 236 0 112 1 205 3 206 1 1 200 5 442 8 l440 5 0 2230 0 2230 -33 210 c-39 253 -51 311 -102 480 -80 267 -179 499 -295 695 -261 439 -447 666 -764 934 -158 134 -196 161 -386 280 -287 180 -452 259 -745 354 -256 83 -351 109 -451 122 -52 6 -137 19 -189 27 -161 27 -519 40 -655 23z m165 -2280 l0 -2200 -1627 2 -1628 3 -3 580 c-4 745 11 929 102 1292 77 305 117 414 247 675 82 164 117 222 262 438 134 199 211 301 268 356 87 83 386 326 484 394 55 38 154 107 220 154 128 91 260 165 347 195 29 10 116 47 192 81 77 35 169 71 205 80 36 10 99 30 139 44 46 17 137 36 245 51 95 14 204 31 242 39 39 7 123 14 188 15 l117 1 0 -2200z m594 2165 c410 -80 633 -154 966 -321 269 -135 490 -289 728 -507 442 -405 749 -880 931 -1440 51 -157 120 -455 143 -612 19 -133 19 -4488 0 -4507 -11 -11 -315 -14 -1605 -16 -876 -1 -1602 0 -1614 3 l-23 5 0 3715 0 3715 147 0 c127 0 171 -5 327 -35z m-596 -5921 l2 -1472 -22 -6 c-42 -11 -3198 -7 -3219 4 -19 11 -19 37 -19 1463 0 799 4 1457 8 1463 4 6 14 14 22 17 8 3 737 5 1620 4 l1605 -2 3 -1471z m-1018 -1563 c17 -5 61 -56 143 -171 153 -213 174 -249 156 -261 -8 -5 -171 -9 -362 -9 l-349 0 -25 29 c-15 16 -40 50 -57 74 -17 25 -70 100 -118 166 -49 67 -88 130 -88 141 0 10 8 24 18 29 19 12 641 13 682 2z m1599 -4 c14 -6 45 -42 70 -79 25 -36 86 -125 135 -197 56 -82 86 -135 83 -145 -6 -14 -47 -16 -355 -16 -328 0 -351 1 -373 19 -38 29 -281 379 -277 398 2 9 14 20 28 24 47 13 663 10 689 -4z m1879 -7 c35 -23 44 -72 40 -227 -3 -141 -3 -143 -31 -170 l-27 -28 -338 -3 c-185 -2 -346 -1 -357 2 -12 3 -34 25 -51 48 -281 392 -274 378 -194 389 25 4 245 6 490 5 377 -1 448 -3 468 -16z"/>
 <path d="M4303 9569 c-18 -5 -35 -14 -38 -19 -10 -15 52 -12 85 5 22 11 35 12 59 4 17 -6 39 -8 49 -3 41 18 -97 30 -155 13z"/>
 <path d="M4520 9572 c0 -5 16 -17 36 -28 35 -19 36 -19 50 1 14 18 13 21 -8 27 -34 9 -78 9 -78 0z"/>
 <path d="M4720 9543 c0 -5 12 -26 25 -48 14 -22 25 -53 25 -70 0 -32 -45 -129 -85 -183 -13 -19 -27 -55 -31 -80 -9 -61 -18 -79 -54 -97 -41 -21 -63 -67 -55 -115 8 -45 -14 -103 -45 -120 -13 -7 -20 -19 -18 -32 2 -17 24 -28 108 -57 97 -33 107 -39 133 -79 42 -63 148 -130 233 -148 89 -18 86 -18 119 12 24 23 26 29 20 70 -5 34 -2 52 10 71 10 14 19 52 22 84 l6 58 -91 111 -90 112 -16 91 c-9 51 -24 114 -32 140 -21 62 -13 95 24 99 27 3 26 3 -17 31 -41 27 -43 31 -38 67 2 20 1 43 -3 50 -4 6 -36 18 -71 26 -76 16 -79 16 -79 7z"/>
 <path d="M3742 9330 c-42 -23 -49 -30 -31 -30 8 1 28 12 44 25 35 29 32 31 -13 5z"/>
 <path d="M3555 9163 c-43 -46 -140 -193 -179 -272 -35 -68 -102 -298 -113 -382 -5 -34 -1 -40 40 -70 48 -36 83 -86 116 -161 20 -46 20 -48 2 -48 -23 0 -67 49 -112 124 -19 31 -37 56 -40 56 -24 0 -10 -233 20 -350 45 -175 139 -359 255 -501 l58 -70 73 73 c39 40 87 85 106 101 l34 27 -30 25 c-16 14 -36 30 -43 36 -18 15 -6 27 53 54 29 13 61 35 70 49 9 14 25 28 35 31 13 4 20 17 22 43 2 31 8 39 36 51 33 15 49 47 38 77 -4 11 -16 14 -43 12 -31 -3 -40 -9 -57 -43 -15 -28 -32 -43 -59 -54 -35 -13 -41 -12 -75 5 -20 10 -40 20 -44 22 -3 2 -4 -6 -1 -17 9 -37 -32 -25 -71 20 -41 49 -56 47 -85 -10 -26 -50 -56 -71 -101 -71 -40 0 -100 32 -100 54 0 17 24 28 45 19 19 -7 101 15 114 31 17 20 -5 38 -54 44 l-47 5 5 45 c8 68 56 93 112 56 20 -13 40 -15 98 -10 80 7 87 5 111 -41 9 -17 20 -34 25 -38 12 -7 164 31 200 50 42 22 88 76 125 148 54 103 48 175 -25 278 -27 38 -87 51 -169 37 -70 -12 -117 -4 -131 23 -30 58 -82 265 -77 306 3 30 -88 263 -103 263 -4 0 -20 -12 -34 -27z m158 -1402 c-2 -54 -31 -117 -58 -129 -24 -11 -25 -10 -19 13 5 20 0 30 -20 46 -14 11 -26 25 -26 31 0 6 16 26 36 45 26 24 44 33 63 31 23 -3 26 -7 24 -37z"/>
 <path d="M5186 8513 c7 -16 14 -35 14 -44 0 -9 9 -24 20 -34 13 -11 20 -31 20 -52 l0 -35 31 26 c37 31 53 32 79 6 58 -58 -12 -180 -104 -180 -14 0 -28 -4 -31 -10 -14 -22 -54 -10 -81 25 -35 46 -46 44 -38 -6 7 -39 5 -42 -52 -100 -32 -33 -81 -74 -107 -91 -26 -17 -55 -44 -63 -60 -10 -18 -25 -31 -45 -35 -27 -5 -29 -8 -23 -38 5 -27 2 -34 -13 -37 -31 -6 -96 9 -109 26 -16 22 -38 21 -29 -1 4 -10 12 -46 17 -80 l10 -62 65 -41 c70 -44 83 -48 83 -25 0 36 80 155 104 155 7 0 29 -26 49 -57 49 -77 39 -111 -40 -132 -18 -5 -45 -18 -60 -29 -15 -11 -51 -31 -80 -46 -84 -42 -119 -32 -86 24 16 27 16 32 3 40 -8 5 -20 10 -27 10 -17 0 -63 -58 -63 -80 0 -21 64 -78 98 -86 12 -4 22 -12 22 -20 0 -22 21 -17 70 17 86 58 97 62 117 40 11 -11 39 -22 70 -26 l53 -7 -6 31 c-8 37 12 43 40 12 25 -28 61 -33 102 -16 49 20 76 19 106 -4 l25 -20 45 47 c40 42 108 133 108 145 0 3 -9 7 -20 10 -19 5 -20 11 -15 74 9 100 12 110 50 152 47 52 65 99 65 170 0 55 -2 61 -29 81 -31 22 -60 96 -67 175 -5 50 -33 75 -126 111 -36 15 -88 44 -113 65 -26 22 -49 39 -50 39 -2 0 3 -12 11 -27z"/>
 <path d="M3938 7823 c-30 -8 -20 -23 15 -22 34 0 84 17 57 18 -8 1 -24 3 -35 5 -11 2 -28 2 -37 -1z"/>
 <path d="M4572 7381 c-35 -15 -77 -38 -94 -51 -27 -20 -29 -24 -14 -38 13 -13 21 -14 53 -3 21 7 54 11 73 9 32 -3 36 0 57 45 36 75 23 82 -75 38z"/>
 <path d="M4555 7159 c-23 -15 -40 -18 -70 -14 -77 12 -138 11 -143 -3 -3 -10 26 -12 135 -10 130 3 138 4 138 23 0 26 -23 28 -60 4z"/>
 <path d="M7570 9905 c-22 -23 -22 -28 -13 -87 6 -35 7 -69 3 -77 -4 -7 -31 -23 -61 -35 -30 -11 -54 -27 -54 -35 0 -7 74 -55 165 -105 91 -51 185 -105 210 -119 58 -34 66 -34 74 4 12 63 -11 90 -143 163 -86 48 -121 73 -121 86 0 22 22 31 58 24 40 -8 59 15 67 79 13 105 -5 127 -106 127 -46 0 -59 -4 -79 -25z"/>
 <path d="M7425 9486 c-12 -76 0 -87 210 -207 220 -126 244 -137 254 -121 9 14 7 79 -2 107 -4 12 -33 36 -65 54 -56 34 -75 45 -264 154 -54 32 -104 57 -112 57 -10 0 -17 -15 -21 -44z"/>
 <path d="M7427 9208 c-5 -36 -2 -58 7 -73 13 -19 424 -255 445 -255 20 0 22 70 4 108 -15 31 -43 51 -178 129 -286 166 -270 161 -278 91z"/>
 <path d="M7425 8952 c-7 -43 4 -79 31 -103 11 -9 62 -38 114 -65 52 -27 106 -59 120 -73 23 -23 23 -25 5 -32 -11 -4 -55 -8 -97 -8 l-78 -1 0 -73 c0 -112 -2 -114 -181 -87 -79 12 -200 33 -269 47 -202 42 -187 42 -195 -8 -10 -67 -2 -426 10 -438 7 -7 30 -5 70 4 33 8 152 31 265 50 l205 36 19 -23 c18 -22 18 -85 15 -2068 l-4 -2045 94 -178 c95 -178 110 -195 135 -155 7 12 7 26 -2 51 -9 26 -12 531 -12 2234 0 1211 3 2208 6 2217 9 24 41 20 112 -14 46 -22 79 -30 117 -30 58 0 371 -51 466 -75 33 -9 64 -13 69 -10 6 4 10 101 10 241 0 186 -3 236 -13 240 -8 3 -69 -6 -138 -20 -68 -14 -198 -37 -287 -52 -197 -32 -194 -33 -199 76 -2 63 0 74 20 94 13 13 30 25 38 28 11 4 12 10 3 24 -11 19 -409 253 -431 254 -6 0 -14 -17 -18 -38z"/>
 <path d="M6853 5622 c-51 -4 -51 -5 -55 -140 -3 -79 -6 -96 -22 -108 -27 -19 -110 -18 -126 1 -7 8 -17 57 -22 108 -14 148 2 137 -202 137 -101 0 -177 -4 -181 -10 -8 -12 19 -280 50 -491 14 -94 36 -263 50 -377 33 -269 76 -585 80 -593 7 -10 497 -18 522 -8 30 11 37 43 74 319 17 129 39 276 49 325 10 50 26 153 35 230 9 77 24 190 35 250 43 250 53 336 41 348 -11 11 -218 17 -328 9z m-77 -536 c3 -8 1 -47 -5 -86 -17 -105 -41 -345 -41 -400 0 -51 -19 -80 -38 -58 -10 13 -62 433 -62 500 0 19 5 39 12 46 18 18 127 16 134 -2z"/>
 <path d="M8267 5622 l-117 -3 2 -737 3 -737 270 0 c370 1 461 18 536 102 73 81 89 200 89 674 0 341 -14 504 -49 585 -23 52 -92 100 -155 109 -50 6 -418 11 -579 7z m343 -247 c55 -28 55 -29 58 -447 4 -499 -2 -535 -93 -541 l-40 -2 -3 479 c-2 417 0 482 13 503 18 27 26 28 65 8z"/>
 <path d="M4800 5887 c-81 -94 -162 -154 -286 -214 -92 -44 -143 -61 -300 -97 -104 -24 -243 -51 -309 -60 -202 -27 -289 -56 -369 -127 -89 -79 -153 -258 -142 -401 3 -40 8 -149 11 -243 7 -199 3 -211 -90 -270 -30 -20 -55 -37 -55 -39 0 -2 26 -25 57 -50 31 -26 70 -65 86 -87 16 -22 50 -52 75 -67 39 -22 59 -27 117 -27 58 0 79 5 121 29 64 35 129 100 163 162 14 26 31 49 38 51 6 2 36 -18 66 -45 80 -72 160 -113 362 -182 210 -73 307 -120 396 -193 83 -69 135 -139 203 -275 31 -62 62 -112 69 -112 29 1 104 128 132 225 29 102 6 252 -81 533 -30 95 -34 122 -29 164 9 61 -11 265 -33 333 -12 42 -34 69 -126 161 -118 117 -147 157 -129 175 6 6 80 32 164 59 84 26 155 53 157 59 2 6 -7 25 -21 43 -47 65 -77 158 -107 332 -33 188 -44 226 -69 226 -9 0 -41 -29 -71 -63z m-1193 -1492 c8 -23 -26 -58 -44 -44 -14 12 -18 41 -6 52 12 13 44 7 50 -8z"/>
 <path d="M3901 4291 c-23 -27 -70 -68 -106 -92 -35 -24 -67 -52 -70 -61 -7 -21 43 -120 97 -192 105 -140 309 -331 346 -324 20 4 305 455 298 473 -2 7 -26 18 -53 24 -26 7 -91 28 -143 48 -52 19 -115 42 -140 51 -25 9 -73 37 -106 63 -34 25 -66 49 -72 53 -5 3 -29 -16 -51 -43z"/>
 </g>

</svg>